<svg width="219" height="157" viewBox="0 0 219 157" fill="none" xmlns="http://www.w3.org/2000/svg">
<path d="M31.1545 109.299L22.4018 99.9465C13.8261 90.7835 8.40886 78.6388 7.14918 65.7501C6.94387 63.6463 5.17946 62.1194 3.21188 62.3392C1.24302 62.5595 -0.186039 64.4425 0.0197012 66.5462C1.45005 81.1758 7.59916 94.9612 17.3335 105.362L26.0863 114.715C26.786 115.462 27.7035 115.837 28.6206 115.837C29.5377 115.837 30.4551 115.463 31.1549 114.715C32.5545 113.219 32.5545 110.795 31.1545 109.299Z" fill="#387879"/>
<path d="M147.013 50.8435C145.612 49.3481 143.343 49.3485 141.944 50.8444L126.704 67.1339C125.305 68.6298 125.306 71.0543 126.705 72.5497C127.405 73.2974 128.322 73.6708 129.24 73.6708C130.157 73.6708 131.074 73.2965 131.774 72.5484L147.014 56.2589C148.413 54.763 148.413 52.3384 147.013 50.8435Z" fill="#387879"/>
<path d="M157.743 66.7697C156.342 65.2733 154.073 65.2743 152.674 66.7701L127.814 93.3392C126.414 94.8346 126.414 97.2596 127.814 98.755C128.515 99.5027 129.431 99.8761 130.348 99.8761C131.266 99.8761 132.183 99.5022 132.883 98.7541L157.743 72.185C159.143 70.6896 159.143 68.2646 157.743 66.7697Z" fill="#387879"/>
<path d="M215.788 37.0059C213.82 36.7838 212.056 38.3131 211.851 40.4168C210.59 53.306 205.174 65.4507 196.597 74.6137L152.943 121.257C151.909 122.363 150.533 122.972 149.07 122.972C147.607 122.972 146.232 122.363 145.197 121.257C144.162 120.151 143.593 118.682 143.593 117.119C143.593 115.555 144.162 114.085 145.197 112.98C145.204 112.973 145.209 112.965 145.215 112.959L173.241 83.0125C174.641 81.5171 174.641 79.0921 173.241 77.5967C171.841 76.1013 169.572 76.1013 168.172 77.5967L135.209 112.817C134.602 110.96 133.606 109.218 132.22 107.736L115.531 89.905L124.128 80.7196C125.527 79.2242 125.527 76.7992 124.128 75.3038C122.728 73.8088 120.459 73.8075 119.059 75.3038L110.462 84.4888L83.0169 55.1638C82.9471 55.0893 82.803 54.9353 82.9185 54.6359C83.034 54.337 83.2389 54.3366 83.3368 54.3366L98.7305 54.3105C106.096 54.2982 112.078 47.8856 112.066 40.0155C112.055 32.155 106.064 25.7662 98.7096 25.7662C98.7053 25.7662 98.7006 25.7662 98.6967 25.7662L38.7267 25.8265C36.7467 25.8283 35.144 27.5449 35.1457 29.6596C35.1474 31.7734 36.7518 33.4859 38.7297 33.4859C38.7305 33.4859 38.7322 33.4859 38.7331 33.4859L98.7032 33.4256C98.7053 33.4256 98.707 33.4256 98.7087 33.4256C102.116 33.4256 104.892 36.3862 104.898 40.0278C104.903 43.674 102.131 46.6456 98.719 46.6511L83.3257 46.6772C80.2349 46.6822 77.4743 48.658 76.2937 51.7105C75.1128 54.763 75.7625 58.2442 77.9482 60.5801L127.15 113.152C129.281 115.428 129.285 119.126 127.168 121.41L127.149 121.43C127.146 121.433 127.144 121.437 127.14 121.44C126.106 122.539 124.736 123.145 123.277 123.145C121.813 123.145 120.438 122.537 119.403 121.431L77.0534 76.1804C75.6538 74.6841 73.3843 74.685 71.9847 76.1804C70.5852 77.6758 70.5852 80.1008 71.9847 81.5962L122.404 135.469C124.54 137.751 124.54 141.465 122.404 143.747C121.369 144.853 119.994 145.461 118.531 145.461C117.068 145.461 115.692 144.853 114.658 143.747L66.3237 92.102C64.9241 90.6066 62.6546 90.6066 61.255 92.102C59.8555 93.5974 59.8555 96.0224 61.255 97.5178L99.598 138.487C101.732 140.769 101.732 144.482 99.5963 146.763C97.4602 149.045 93.9848 149.045 91.8491 146.763L50.8256 102.93C49.4264 101.434 47.1569 101.434 45.7569 102.93C44.3574 104.425 44.3574 106.85 45.7569 108.345L73.8039 138.314C75.9391 140.596 75.9387 144.309 73.8035 146.591C72.7688 147.696 71.3932 148.305 69.9299 148.305C68.4666 148.305 67.0906 147.696 66.0559 146.591L40.151 118.91C38.7515 117.415 36.4819 117.415 35.0824 118.91C33.6828 120.405 33.6828 122.83 35.0824 124.326L60.9877 152.006C63.3761 154.558 66.5521 155.963 69.9299 155.963C73.3077 155.963 76.4836 154.558 78.8721 152.006C80.2588 150.524 81.2559 148.781 81.8624 146.923L86.7805 152.178C89.246 154.813 92.4848 156.129 95.7227 156.129C98.9611 156.129 102.199 154.812 104.665 152.178C106.052 150.697 107.049 148.953 107.655 147.096L109.589 149.161C111.977 151.713 115.153 153.119 118.531 153.119C121.909 153.119 125.085 151.713 127.473 149.161C132.404 143.892 132.404 135.32 127.473 130.052L127.467 130.045C129.235 129.383 130.856 128.302 132.22 126.845C132.232 126.831 132.243 126.818 132.256 126.804L137.133 121.593C137.751 123.483 138.764 125.215 140.128 126.672C142.516 129.225 145.692 130.63 149.07 130.63C152.448 130.63 155.624 129.225 158.013 126.672L201.667 80.0286C211.401 69.6279 217.55 55.8425 218.98 41.2125C219.186 39.1092 217.757 37.2258 215.788 37.0059Z" fill="#387879"/>
<path d="M192.415 44.9245C191.702 42.9519 189.628 41.9693 187.781 42.7312C182.243 45.015 176.272 45.4747 170.513 44.063C168.583 43.5895 166.66 44.8769 166.218 46.9381C165.775 48.9994 166.979 51.0546 168.908 51.5276C171.624 52.194 174.375 52.5253 177.121 52.5253C181.616 52.5253 186.094 51.6373 190.362 49.8764C192.209 49.1145 193.128 46.8979 192.415 44.9245Z" fill="#387879"/>
<path d="M180.273 0.491447L120.183 0.430664C120.178 0.430664 120.175 0.430664 120.171 0.430664C112.882 0.430664 106.945 6.76329 106.933 14.5511L106.933 14.8084C106.927 18.5862 108.299 22.1406 110.795 24.816C113.291 27.4933 116.613 28.97 120.149 28.9755L136.754 29.0033L103.851 64.1596C102.452 65.655 102.452 68.08 103.851 69.5754C104.551 70.3231 105.469 70.6974 106.386 70.6974C107.303 70.6974 108.22 70.3235 108.92 69.5754L144.333 31.7364C147.45 37.6723 151.923 42.5964 157.487 46.1466C158.062 46.514 158.696 46.6891 159.321 46.6891C160.541 46.6891 161.731 46.0232 162.402 44.8226C163.416 43.0068 162.862 40.6554 161.162 39.5708C155.44 35.9201 151.144 30.469 148.738 23.8083C148.736 23.801 148.731 23.7955 148.729 23.7882C148.207 22.3682 146.915 21.36 145.4 21.3577L120.16 21.3152C118.539 21.3124 117.017 20.6351 115.872 19.4084C114.727 18.1813 114.099 16.552 114.101 14.8217L114.102 14.5644C114.107 10.9931 116.829 8.08959 120.171 8.08959C120.172 8.08959 120.175 8.08959 120.176 8.08959L180.266 8.15038C180.267 8.15038 180.269 8.15038 180.27 8.15038C182.247 8.15038 183.852 6.43788 183.854 4.32411C183.855 2.20943 182.252 0.493732 180.273 0.491447Z" fill="#387879"/>
</svg>
